<?xml version="1.0" encoding="utf-8"?>
<!-- Generator: Adobe Illustrator 19.0.0, SVG Export Plug-In . SVG Version: 6.00 Build 0)  -->
<svg version="1.1" id="Layer_1" xmlns="http://www.w3.org/2000/svg" xmlns:xlink="http://www.w3.org/1999/xlink" x="0px" y="0px"
	 viewBox="0 0 350 105.5" style="enable-background:new 0 0 350 105.5;" xml:space="preserve">
<style type="text/css">
	.st0{fill:#595A5C;}
	.st1{fill:#3BB34A;}
</style>
<g id="XMLID_1_">
	<path id="XMLID_102_" class="st0" d="M0,71.5V0h14.2l16.9,50.6c1.6,4.7,2.7,8.2,3.4,10.6c0.8-2.6,2.1-6.4,3.8-11.5L55.5,0h12.7
		v71.5h-9.1V11.7L38.3,71.5h-8.5L9.1,10.6v60.9H0z"/>
	<path id="XMLID_100_" class="st0" d="M145.3,51.2l8.5-1.2c0.2,5.5,1.3,9.2,3.1,11.2s4.3,3,7.6,3c2.4,0,4.4-0.5,6.1-1.6
		c1.7-1.1,2.9-2.6,3.6-4.4c0.6-1.9,1-4.9,1-9V0h9.5v48.7c0,6-0.7,10.6-2.2,13.9c-1.4,3.3-3.7,5.8-6.9,7.5c-3.1,1.7-6.8,2.6-11,2.6
		c-6.3,0-11.1-1.8-14.4-5.4C146.8,63.7,145.2,58.3,145.3,51.2z"/>
	<path id="XMLID_97_" class="st0" d="M192.3,71.5L219.7,0h10.2l29.3,71.5h-10.8l-8.3-21.7h-29.9l-7.9,21.7H192.3z M212.9,42.2h24.2
		l-7.5-19.8c-2.3-6-4-11-5.1-14.8c-0.9,4.6-2.2,9.1-3.9,13.7L212.9,42.2z"/>
	<path id="XMLID_95_" class="st0" d="M266.7,71.5V0h9.7l37.6,56.2V0h9.1v71.5h-9.7l-37.6-56.2v56.2H266.7z"/>
	<path id="XMLID_93_" class="st0" d="M340.5,71.5V0h9.5v71.5H340.5z"/>
	<g id="XMLID_25_">
		<path id="XMLID_90_" class="st0" d="M0,105.2V83.8h8.1c1.4,0,2.5,0.1,3.3,0.2c1.1,0.2,1.9,0.5,2.6,1c0.7,0.5,1.3,1.2,1.7,2.1
			c0.4,0.9,0.7,1.9,0.7,2.9c0,1.8-0.6,3.4-1.7,4.6s-3.3,1.9-6.3,1.9H2.8v8.7H0z M2.8,93.9h5.5c1.8,0,3.1-0.3,3.9-1
			c0.8-0.7,1.2-1.6,1.2-2.9c0-0.9-0.2-1.7-0.7-2.3c-0.5-0.6-1-1.1-1.8-1.3c-0.5-0.1-1.4-0.2-2.6-0.2H2.8V93.9z"/>
		<path id="XMLID_87_" class="st0" d="M38,105.2V83.8h9.5c1.9,0,3.4,0.2,4.4,0.6c1,0.4,1.8,1.1,2.4,2c0.6,1,0.9,2,0.9,3.2
			c0,1.5-0.5,2.8-1.5,3.8c-1,1-2.5,1.7-4.6,2c0.8,0.4,1.3,0.7,1.7,1.1c0.8,0.8,1.6,1.7,2.4,2.8l3.7,5.8h-3.6l-2.8-4.5
			c-0.8-1.3-1.5-2.3-2-3c-0.5-0.7-1-1.2-1.4-1.4c-0.4-0.3-0.9-0.5-1.3-0.6c-0.3-0.1-0.8-0.1-1.6-0.1h-3.3v9.5H38z M40.8,93.2h6.1
			c1.3,0,2.3-0.1,3-0.4c0.7-0.3,1.3-0.7,1.7-1.3c0.4-0.6,0.6-1.2,0.6-1.9c0-1-0.4-1.8-1.1-2.5c-0.7-0.7-1.9-1-3.5-1h-6.8V93.2z"/>
		<path id="XMLID_84_" class="st0" d="M76.6,94.7c0-3.6,1-6.3,2.9-8.4c1.9-2,4.4-3,7.4-3c2,0,3.8,0.5,5.3,1.4c1.6,0.9,2.8,2.3,3.6,4
			c0.8,1.7,1.2,3.6,1.2,5.7c0,2.2-0.4,4.1-1.3,5.8c-0.9,1.7-2.1,3-3.7,3.9c-1.6,0.9-3.3,1.3-5.2,1.3c-2,0-3.8-0.5-5.4-1.5
			c-1.6-1-2.8-2.3-3.6-4C77,98.4,76.6,96.6,76.6,94.7z M79.5,94.8c0,2.6,0.7,4.6,2.1,6.1c1.4,1.5,3.1,2.2,5.2,2.2
			c2.1,0,3.9-0.8,5.3-2.3c1.4-1.5,2.1-3.6,2.1-6.4c0-1.7-0.3-3.3-0.9-4.6c-0.6-1.3-1.5-2.3-2.6-3c-1.1-0.7-2.4-1.1-3.8-1.1
			c-2,0-3.7,0.7-5.2,2.1C80.2,89.3,79.5,91.6,79.5,94.8z"/>
		<path id="XMLID_81_" class="st0" d="M118.7,105.2V83.8h8.1c1.4,0,2.5,0.1,3.3,0.2c1.1,0.2,1.9,0.5,2.6,1c0.7,0.5,1.3,1.2,1.7,2.1
			c0.4,0.9,0.7,1.9,0.7,2.9c0,1.8-0.6,3.4-1.7,4.6c-1.2,1.3-3.3,1.9-6.3,1.9h-5.5v8.7H118.7z M121.5,93.9h5.5c1.8,0,3.1-0.3,3.9-1
			c0.8-0.7,1.2-1.6,1.2-2.9c0-0.9-0.2-1.7-0.7-2.3c-0.5-0.6-1-1.1-1.8-1.3c-0.5-0.1-1.4-0.2-2.6-0.2h-5.5V93.9z"/>
		<path id="XMLID_79_" class="st0" d="M156.7,105.2V83.8h15.5v2.5h-12.7v6.6h11.8v2.5h-11.8v7.3h13.1v2.5H156.7z"/>
		<path id="XMLID_76_" class="st0" d="M194.5,105.2V83.8h9.5c1.9,0,3.4,0.2,4.4,0.6c1,0.4,1.8,1.1,2.4,2c0.6,1,0.9,2,0.9,3.2
			c0,1.5-0.5,2.8-1.5,3.8c-1,1-2.5,1.7-4.6,2c0.8,0.4,1.3,0.7,1.7,1.1c0.8,0.8,1.6,1.7,2.4,2.8l3.7,5.8h-3.6l-2.8-4.5
			c-0.8-1.3-1.5-2.3-2-3c-0.5-0.7-1-1.2-1.4-1.4c-0.4-0.3-0.9-0.5-1.3-0.6c-0.3-0.1-0.8-0.1-1.6-0.1h-3.3v9.5H194.5z M197.4,93.2
			h6.1c1.3,0,2.3-0.1,3-0.4c0.7-0.3,1.3-0.7,1.7-1.3c0.4-0.6,0.6-1.2,0.6-1.9c0-1-0.4-1.8-1.1-2.5c-0.7-0.7-1.9-1-3.5-1h-6.8V93.2z"
			/>
		<path id="XMLID_74_" class="st0" d="M239,105.2V86.3h-7.1v-2.5h17v2.5h-7.1v18.9H239z"/>
		<path id="XMLID_72_" class="st0" d="M270.2,105.2V83.8h2.8v21.4H270.2z"/>
		<path id="XMLID_70_" class="st0" d="M296.1,105.2V83.8h15.5v2.5h-12.7v6.6h11.8v2.5h-11.8v7.3H312v2.5H296.1z"/>
		<path id="XMLID_26_" class="st0" d="M333,98.3l2.7-0.2c0.1,1.1,0.4,2,0.9,2.6c0.5,0.7,1.2,1.2,2.2,1.7c1,0.4,2.1,0.6,3.3,0.6
			c1.1,0,2-0.2,2.9-0.5c0.8-0.3,1.4-0.8,1.8-1.3c0.4-0.6,0.6-1.2,0.6-1.8c0-0.7-0.2-1.3-0.6-1.8c-0.4-0.5-1-0.9-1.9-1.3
			c-0.6-0.2-1.8-0.6-3.8-1c-2-0.5-3.3-0.9-4.1-1.3c-1-0.5-1.8-1.2-2.3-2c-0.5-0.8-0.8-1.7-0.8-2.7c0-1.1,0.3-2.1,0.9-3
			c0.6-0.9,1.5-1.7,2.7-2.1c1.2-0.5,2.5-0.7,3.9-0.7c1.6,0,3,0.3,4.2,0.8c1.2,0.5,2.1,1.3,2.8,2.3c0.7,1,1,2.1,1.1,3.4l-2.7,0.2
			c-0.1-1.4-0.6-2.4-1.5-3.1c-0.8-0.7-2.1-1-3.7-1c-1.7,0-3,0.3-3.7,0.9c-0.8,0.6-1.2,1.4-1.2,2.3c0,0.8,0.3,1.4,0.8,1.9
			c0.5,0.5,2,1,4.3,1.5c2.3,0.5,3.9,1,4.7,1.4c1.2,0.6,2.2,1.3,2.8,2.2c0.6,0.9,0.9,1.9,0.9,3c0,1.1-0.3,2.2-1,3.2
			c-0.7,1-1.6,1.8-2.8,2.4c-1.2,0.6-2.6,0.8-4.1,0.8c-1.9,0-3.6-0.3-4.9-0.8c-1.3-0.6-2.3-1.4-3.1-2.5C333.4,101,333,99.7,333,98.3z
			"/>
	</g>
	<g id="XMLID_22_">
		<path id="XMLID_24_" class="st1" d="M128,35.9V7.5H120v8.7L113.3,0h-10.2L75.7,71.5h10.1c0,0,21.4-59.4,22.3-64
			c1.1,3.9,23.8,64,23.8,64h10.8L128,35.9z"/>
		<rect id="XMLID_23_" x="102.4" y="46" class="st1" width="13.4" height="13.4"/>
	</g>
</g>
</svg>
