<?xml version="1.0" encoding="utf-8"?>
<!-- Generator: Adobe Illustrator 19.0.0, SVG Export Plug-In . SVG Version: 6.00 Build 0)  -->
<svg version="1.1" id="Layer_1" xmlns="http://www.w3.org/2000/svg" xmlns:xlink="http://www.w3.org/1999/xlink" x="0px" y="0px"
	 viewBox="0 0 360 108.6" style="enable-background:new 0 0 360 108.6;" xml:space="preserve">
<style type="text/css">
	.st0{fill:#595A5C;}
	.st1{fill:#3BB34A;}
</style>
<g id="XMLID_237_">
	<path id="XMLID_102_" class="st0" d="M0,73.6V0h14.7l17.4,52.1c1.6,4.9,2.8,8.5,3.5,10.9c0.8-2.7,2.1-6.6,3.9-11.8L57.1,0h13.1
		v73.6h-9.4V12L39.4,73.6h-8.8L9.4,10.9v62.6H0z"/>
	<path id="XMLID_100_" class="st0" d="M149.5,52.7l8.8-1.2c0.2,5.6,1.3,9.5,3.2,11.5c1.9,2.1,4.5,3.1,7.8,3.1c2.4,0,4.5-0.6,6.3-1.7
		c1.8-1.1,3-2.6,3.7-4.6c0.7-1.9,1-5,1-9.2V0h9.7v50.1c0,6.2-0.7,10.9-2.2,14.3c-1.5,3.4-3.8,6-7.1,7.7c-3.2,1.8-7,2.7-11.4,2.7
		c-6.5,0-11.4-1.9-14.8-5.6C151,65.5,149.4,60,149.5,52.7z"/>
	<path id="XMLID_97_" class="st0" d="M197.8,73.6L226,0h10.5l30.1,73.6h-11.1l-8.6-22.3h-30.8l-8.1,22.3H197.8z M219,43.4h24.9
		L236.3,23c-2.3-6.2-4.1-11.3-5.2-15.3c-0.9,4.7-2.3,9.4-4,14.1L219,43.4z"/>
	<path id="XMLID_95_" class="st0" d="M274.3,73.6V0h10l38.6,57.8V0h9.3v73.6h-10l-38.6-57.8v57.8H274.3z"/>
	<path id="XMLID_93_" class="st0" d="M350.3,73.6V0h9.7v73.6H350.3z"/>
	<g id="XMLID_25_">
		<path id="XMLID_90_" class="st0" d="M0,108.2v-22h8.3c1.5,0,2.6,0.1,3.4,0.2c1.1,0.2,2,0.5,2.7,1c0.7,0.5,1.3,1.2,1.8,2.1
			c0.4,0.9,0.7,1.9,0.7,3c0,1.9-0.6,3.5-1.8,4.8c-1.2,1.3-3.3,1.9-6.5,1.9H2.9v9H0z M2.9,96.6h5.7c1.9,0,3.2-0.4,4-1.1
			c0.8-0.7,1.2-1.7,1.2-3c0-0.9-0.2-1.7-0.7-2.4c-0.5-0.7-1.1-1.1-1.8-1.3c-0.5-0.1-1.4-0.2-2.7-0.2H2.9V96.6z"/>
		<path id="XMLID_87_" class="st0" d="M39,108.2v-22h9.8c2,0,3.5,0.2,4.5,0.6c1,0.4,1.8,1.1,2.5,2.1c0.6,1,0.9,2.1,0.9,3.3
			c0,1.6-0.5,2.9-1.5,4c-1,1.1-2.6,1.8-4.7,2c0.8,0.4,1.4,0.7,1.8,1.1c0.9,0.8,1.7,1.8,2.4,2.9l3.8,6h-3.7l-2.9-4.6
			c-0.9-1.3-1.6-2.3-2.1-3c-0.6-0.7-1-1.2-1.5-1.5c-0.4-0.3-0.9-0.5-1.3-0.6c-0.3-0.1-0.9-0.1-1.6-0.1h-3.4v9.8H39z M41.9,95.9h6.3
			c1.3,0,2.4-0.1,3.1-0.4c0.8-0.3,1.3-0.7,1.7-1.3c0.4-0.6,0.6-1.3,0.6-2c0-1-0.4-1.9-1.1-2.6c-0.8-0.7-2-1-3.6-1h-7V95.9z"/>
		<path id="XMLID_84_" class="st0" d="M78.8,97.5c0-3.7,1-6.5,2.9-8.6c2-2.1,4.5-3.1,7.6-3.1c2,0,3.9,0.5,5.5,1.5s2.9,2.3,3.7,4.1
			c0.9,1.7,1.3,3.7,1.3,5.9c0,2.2-0.5,4.2-1.4,6c-0.9,1.8-2.2,3.1-3.8,4c-1.7,0.9-3.4,1.4-5.3,1.4c-2.1,0-3.9-0.5-5.6-1.5
			c-1.6-1-2.9-2.4-3.7-4.1C79.2,101.2,78.8,99.4,78.8,97.5z M81.8,97.5c0,2.7,0.7,4.7,2.1,6.3c1.4,1.5,3.2,2.3,5.4,2.3
			c2.2,0,4-0.8,5.4-2.3c1.4-1.5,2.1-3.7,2.1-6.6c0-1.8-0.3-3.4-0.9-4.7c-0.6-1.3-1.5-2.4-2.7-3.1c-1.2-0.7-2.5-1.1-3.9-1.1
			c-2.1,0-3.8,0.7-5.3,2.1C82.5,91.8,81.8,94.2,81.8,97.5z"/>
		<path id="XMLID_81_" class="st0" d="M122.1,108.2v-22h8.3c1.5,0,2.6,0.1,3.4,0.2c1.1,0.2,2,0.5,2.7,1c0.7,0.5,1.3,1.2,1.8,2.1
			c0.4,0.9,0.7,1.9,0.7,3c0,1.9-0.6,3.5-1.8,4.8c-1.2,1.3-3.3,1.9-6.5,1.9H125v9H122.1z M125,96.6h5.7c1.9,0,3.2-0.4,4-1.1
			c0.8-0.7,1.2-1.7,1.2-3c0-0.9-0.2-1.7-0.7-2.4c-0.5-0.7-1.1-1.1-1.8-1.3c-0.5-0.1-1.4-0.2-2.7-0.2H125V96.6z"/>
		<path id="XMLID_79_" class="st0" d="M161.1,108.2v-22h15.9v2.6h-13v6.7h12.2v2.6H164v7.5h13.5v2.6H161.1z"/>
		<path id="XMLID_76_" class="st0" d="M200.1,108.2v-22h9.8c2,0,3.5,0.2,4.5,0.6c1,0.4,1.8,1.1,2.5,2.1c0.6,1,0.9,2.1,0.9,3.3
			c0,1.6-0.5,2.9-1.5,4c-1,1.1-2.6,1.8-4.7,2c0.8,0.4,1.4,0.7,1.8,1.1c0.9,0.8,1.7,1.8,2.4,2.9l3.8,6h-3.7l-2.9-4.6
			c-0.9-1.3-1.6-2.3-2.1-3c-0.6-0.7-1-1.2-1.5-1.5c-0.4-0.3-0.9-0.5-1.3-0.6c-0.3-0.1-0.9-0.1-1.6-0.1H203v9.8H200.1z M203,95.9h6.3
			c1.3,0,2.4-0.1,3.1-0.4c0.8-0.3,1.3-0.7,1.7-1.3c0.4-0.6,0.6-1.3,0.6-2c0-1-0.4-1.9-1.1-2.6c-0.8-0.7-2-1-3.6-1h-7V95.9z"/>
		<path id="XMLID_74_" class="st0" d="M245.8,108.2V88.7h-7.3v-2.6H256v2.6h-7.3v19.4H245.8z"/>
		<path id="XMLID_72_" class="st0" d="M277.9,108.2v-22h2.9v22H277.9z"/>
		<path id="XMLID_70_" class="st0" d="M304.5,108.2v-22h15.9v2.6h-13v6.7h12.2v2.6h-12.2v7.5H321v2.6H304.5z"/>
		<path id="XMLID_26_" class="st0" d="M342.5,101.1l2.7-0.2c0.1,1.1,0.4,2,0.9,2.7c0.5,0.7,1.2,1.3,2.2,1.7c1,0.4,2.1,0.7,3.4,0.7
			c1.1,0,2.1-0.2,2.9-0.5c0.9-0.3,1.5-0.8,1.9-1.4c0.4-0.6,0.6-1.2,0.6-1.9c0-0.7-0.2-1.3-0.6-1.8c-0.4-0.5-1.1-0.9-2-1.3
			c-0.6-0.2-1.9-0.6-3.9-1.1c-2-0.5-3.4-0.9-4.3-1.4c-1.1-0.5-1.8-1.2-2.4-2.1c-0.5-0.8-0.8-1.7-0.8-2.7c0-1.1,0.3-2.2,0.9-3.1
			c0.6-1,1.6-1.7,2.8-2.2c1.2-0.5,2.6-0.8,4-0.8c1.6,0,3.1,0.3,4.3,0.8c1.2,0.5,2.2,1.3,2.9,2.3c0.7,1,1,2.2,1.1,3.5l-2.8,0.2
			c-0.2-1.4-0.7-2.4-1.5-3.2c-0.9-0.7-2.1-1.1-3.8-1.1c-1.8,0-3,0.3-3.9,1c-0.8,0.6-1.2,1.4-1.2,2.3c0,0.8,0.3,1.4,0.9,2
			c0.6,0.5,2,1,4.4,1.6c2.4,0.5,4,1,4.9,1.4c1.3,0.6,2.2,1.3,2.8,2.2c0.6,0.9,0.9,2,0.9,3.1c0,1.2-0.3,2.3-1,3.3
			c-0.7,1-1.6,1.8-2.9,2.4c-1.3,0.6-2.7,0.9-4.2,0.9c-2,0-3.7-0.3-5-0.9c-1.3-0.6-2.4-1.5-3.2-2.6
			C342.9,103.9,342.5,102.6,342.5,101.1z"/>
	</g>
	<g id="XMLID_22_">
		<path id="XMLID_24_" class="st1" d="M131.7,36.9V7.7h-8.3v8.9L116.6,0h-10.5L77.8,73.6h10.3c0,0,22-61.1,22.9-65.8
			c1.1,4,24.5,65.8,24.5,65.8h11.1L131.7,36.9z"/>
		<rect id="XMLID_23_" x="105.3" y="47.3" class="st1" width="13.8" height="13.8"/>
	</g>
</g>
</svg>
