<?xml version="1.0" encoding="utf-8"?>
<!-- Generator: Adobe Illustrator 19.0.0, SVG Export Plug-In . SVG Version: 6.00 Build 0)  -->
<svg version="1.1" id="Layer_1" xmlns="http://www.w3.org/2000/svg" xmlns:xlink="http://www.w3.org/1999/xlink" x="0px" y="0px"
	 viewBox="0 0 934.7 281.9" style="enable-background:new 0 0 934.7 281.9;" xml:space="preserve">
<style type="text/css">
	.st0{fill:#FFFFFF;}
	.st1{fill:#3BB34A;}
</style>
<path id="XMLID_102_" class="st0" d="M0,191V0h38l45.2,135.2c4.2,12.6,7.2,22,9.1,28.3c2.2-6.9,5.6-17.2,10.2-30.6L148.3,0h34v191
	h-24.4V31.1L102.4,191H79.6L24.4,28.4V191H0z"/>
<path id="XMLID_100_" class="st0" d="M388.2,136.8l22.8-3.1c0.6,14.6,3.3,24.6,8.2,30c4.9,5.4,11.6,8.1,20.2,8.1
	c6.3,0,11.8-1.5,16.4-4.4c4.6-2.9,7.8-6.9,9.5-11.9c1.7-5,2.6-13,2.6-23.9V0h25.3v130.2c0,16-1.9,28.4-5.8,37.1
	c-3.9,8.8-10,15.5-18.4,20.1c-8.4,4.6-18.2,6.9-29.5,6.9c-16.8,0-29.6-4.8-38.5-14.5C392.1,170.2,387.8,155.8,388.2,136.8z"/>
<path id="XMLID_97_" class="st0" d="M513.5,191L586.9,0h27.2l78.2,191h-28.8l-22.3-57.9h-79.9l-21,57.9H513.5z M568.6,112.6h64.8
	l-19.9-52.9c-6.1-16.1-10.6-29.3-13.5-39.6c-2.4,12.2-5.9,24.4-10.3,36.5L568.6,112.6z"/>
<path id="XMLID_95_" class="st0" d="M712.2,191V0h25.9l100.3,150V0h24.2v191h-25.9L736.4,40.9V191H712.2z"/>
<path id="XMLID_93_" class="st0" d="M909.5,191V0h25.3v191H909.5z"/>
<g id="XMLID_25_">
	<path id="XMLID_90_" class="st0" d="M0,280.9v-57.2h21.6c3.8,0,6.7,0.2,8.7,0.5c2.8,0.5,5.2,1.4,7.1,2.7c1.9,1.3,3.4,3.2,4.6,5.5
		c1.2,2.4,1.7,5,1.7,7.8c0,4.9-1.5,9-4.6,12.3c-3.1,3.4-8.7,5.1-16.8,5.1H7.6v23.3H0z M7.6,250.9h14.8c4.9,0,8.4-0.9,10.4-2.7
		c2.1-1.8,3.1-4.4,3.1-7.7c0-2.4-0.6-4.4-1.8-6.1c-1.2-1.7-2.8-2.8-4.8-3.4c-1.3-0.3-3.6-0.5-7.1-0.5H7.6V250.9z"/>
	<path id="XMLID_87_" class="st0" d="M101.4,280.9v-57.2h25.4c5.1,0,9,0.5,11.6,1.5c2.7,1,4.8,2.8,6.4,5.4s2.4,5.5,2.4,8.6
		c0,4.1-1.3,7.5-3.9,10.3c-2.6,2.8-6.7,4.5-12.2,5.3c2,1,3.5,1.9,4.6,2.9c2.2,2,4.3,4.6,6.3,7.6l9.9,15.6h-9.5l-7.6-11.9
		c-2.2-3.4-4-6.1-5.5-7.9c-1.4-1.8-2.7-3.1-3.8-3.8s-2.3-1.2-3.5-1.5c-0.9-0.2-2.3-0.3-4.2-0.3h-8.8v25.4H101.4z M108.9,248.9h16.3
		c3.5,0,6.2-0.4,8.1-1.1c2-0.7,3.4-1.9,4.4-3.4c1-1.6,1.5-3.3,1.5-5.1c0-2.7-1-4.9-2.9-6.7c-2-1.7-5.1-2.6-9.3-2.6h-18.1V248.9z"/>
	<path id="XMLID_84_" class="st0" d="M204.6,253c0-9.5,2.5-16.9,7.6-22.3c5.1-5.4,11.7-8.1,19.7-8.1c5.3,0,10,1.3,14.3,3.8
		c4.2,2.5,7.5,6,9.7,10.6c2.2,4.5,3.3,9.6,3.3,15.4c0,5.8-1.2,11-3.5,15.6c-2.3,4.6-5.7,8-9.9,10.4c-4.3,2.4-8.9,3.5-13.9,3.5
		c-5.4,0-10.2-1.3-14.4-3.9c-4.2-2.6-7.5-6.1-9.6-10.7S204.6,258,204.6,253z M212.4,253.2c0,6.9,1.9,12.3,5.6,16.3
		c3.7,4,8.4,6,13.9,6c5.7,0,10.4-2,14.1-6c3.7-4,5.5-9.7,5.5-17.1c0-4.7-0.8-8.7-2.4-12.2c-1.6-3.5-3.9-6.2-6.9-8.1
		c-3-1.9-6.4-2.9-10.2-2.9c-5.4,0-10,1.8-13.8,5.5C214.3,238.4,212.4,244.5,212.4,253.2z"/>
	<path id="XMLID_81_" class="st0" d="M317,280.9v-57.2h21.6c3.8,0,6.7,0.2,8.7,0.5c2.8,0.5,5.2,1.4,7.1,2.7c1.9,1.3,3.4,3.2,4.6,5.5
		c1.2,2.4,1.7,5,1.7,7.8c0,4.9-1.5,9-4.6,12.3c-3.1,3.4-8.7,5.1-16.8,5.1h-14.7v23.3H317z M324.6,250.9h14.8c4.9,0,8.4-0.9,10.4-2.7
		c2.1-1.8,3.1-4.4,3.1-7.7c0-2.4-0.6-4.4-1.8-6.1c-1.2-1.7-2.8-2.8-4.8-3.4c-1.3-0.3-3.6-0.5-7.1-0.5h-14.6V250.9z"/>
	<path id="XMLID_79_" class="st0" d="M418.4,280.9v-57.2h41.4v6.8h-33.8V248h31.6v6.7h-31.6v19.5h35.1v6.8H418.4z"/>
	<path id="XMLID_76_" class="st0" d="M519.6,280.9v-57.2h25.4c5.1,0,9,0.5,11.6,1.5c2.7,1,4.8,2.8,6.4,5.4s2.4,5.5,2.4,8.6
		c0,4.1-1.3,7.5-3.9,10.3c-2.6,2.8-6.7,4.5-12.2,5.3c2,1,3.5,1.9,4.6,2.9c2.2,2,4.3,4.6,6.3,7.6l9.9,15.6h-9.5l-7.6-11.9
		c-2.2-3.4-4-6.1-5.5-7.9c-1.4-1.8-2.7-3.1-3.8-3.8s-2.3-1.2-3.5-1.5c-0.9-0.2-2.3-0.3-4.2-0.3h-8.8v25.4H519.6z M527.1,248.9h16.3
		c3.5,0,6.2-0.4,8.1-1.1c2-0.7,3.4-1.9,4.4-3.4c1-1.6,1.5-3.3,1.5-5.1c0-2.7-1-4.9-2.9-6.7c-2-1.7-5.1-2.6-9.3-2.6h-18.1V248.9z"/>
	<path id="XMLID_74_" class="st0" d="M638.2,280.9v-50.4h-18.8v-6.8h45.3v6.8h-18.9v50.4H638.2z"/>
	<path id="XMLID_72_" class="st0" d="M721.7,280.9v-57.2h7.6v57.2H721.7z"/>
	<path id="XMLID_70_" class="st0" d="M790.7,280.9v-57.2h41.4v6.8h-33.8V248h31.6v6.7h-31.6v19.5h35.1v6.8H790.7z"/>
	<path id="XMLID_26_" class="st0" d="M889.2,262.5l7.1-0.6c0.3,2.9,1.1,5.2,2.4,7c1.2,1.8,3.1,3.3,5.8,4.4c2.6,1.1,5.5,1.7,8.8,1.7
		c2.9,0,5.4-0.4,7.6-1.3c2.2-0.9,3.9-2,4.9-3.5c1.1-1.5,1.6-3.1,1.6-4.9c0-1.8-0.5-3.4-1.6-4.7c-1-1.3-2.8-2.5-5.1-3.4
		c-1.5-0.6-4.9-1.5-10.2-2.8c-5.3-1.3-8.9-2.5-11-3.6c-2.7-1.4-4.8-3.2-6.1-5.3c-1.3-2.1-2-4.5-2-7.1c0-2.9,0.8-5.6,2.5-8.1
		c1.6-2.5,4-4.4,7.2-5.7c3.1-1.3,6.6-2,10.5-2c4.2,0,8,0.7,11.2,2c3.2,1.4,5.7,3.4,7.5,6c1.7,2.7,2.7,5.7,2.8,9l-7.3,0.5
		c-0.4-3.6-1.7-6.3-4-8.2c-2.3-1.8-5.6-2.8-10-2.8c-4.6,0-7.9,0.8-10,2.5c-2.1,1.7-3.1,3.7-3.1,6.1c0,2.1,0.7,3.7,2.2,5.1
		c1.5,1.3,5.3,2.7,11.4,4.1c6.1,1.4,10.4,2.6,12.7,3.6c3.3,1.5,5.8,3.5,7.4,5.8c1.6,2.4,2.4,5.1,2.4,8.1c0,3-0.9,5.9-2.6,8.6
		c-1.7,2.7-4.2,4.8-7.5,6.3c-3.3,1.5-6.9,2.2-11,2.2c-5.2,0-9.5-0.8-13-2.3c-3.5-1.5-6.2-3.8-8.2-6.8
		C890.4,269.8,889.3,266.3,889.2,262.5z"/>
</g>
<g id="XMLID_22_">
	<path id="XMLID_24_" class="st1" d="M341.9,95.8V20.1h-21.5v23.2L302.7,0h-27.2l-73.4,191h26.8c0,0,57.1-158.7,59.5-170.9
		c3,10.3,63.6,170.9,63.6,170.9h28.8L341.9,95.8z"/>
	<rect id="XMLID_23_" x="273.5" y="122.7" class="st1" width="35.9" height="35.9"/>
</g>
</svg>
