<?xml version="1.0" encoding="utf-8"?>
<!-- Generator: Adobe Illustrator 19.0.0, SVG Export Plug-In . SVG Version: 6.00 Build 0)  -->
<svg version="1.1" id="Layer_1" xmlns="http://www.w3.org/2000/svg" xmlns:xlink="http://www.w3.org/1999/xlink" x="0px" y="0px"
	 viewBox="-304 173.1 351 214.9" style="enable-background:new -304 173.1 351 214.9;" xml:space="preserve">
<style type="text/css">
	.st0{fill:#FFFFFF;}
	.st1{fill:#11AF4B;}
	.st2{font-family:'Roboto-Regular';}
	.st3{font-size:10.9753px;}
	.st4{fill:#0C4D66;}
	.st5{fill:#58595B;}
	.st6{fill:#37B34A;}
</style>
<rect id="XMLID_4_" x="-303.5" y="173.6" class="st0" width="350" height="213.9"/>
<text transform="matrix(1 0 0 1 -121.8248 270.9483)" class="st1 st2 st3">C:</text>
<text transform="matrix(1 0 0 1 -112.1248 270.9483)" class="st4 st2 st3"> +254 20 6009999/8</text>
<text transform="matrix(1 0 0 1 -121.8248 284.3483)" class="st1 st2 st3">E:</text>
<text transform="matrix(1 0 0 1 -112.6248 284.3483)" class="st4 st2 st3"> info@majaniproperties.com</text>
<text transform="matrix(1 0 0 1 -121.8248 297.7483)" class="st1 st2 st3">W:</text>
<text transform="matrix(1 0 0 1 -109.3248 297.7483)" class="st4 st2 st3"> www.majaniproperties.com</text>
<g id="XMLID_5_">
	<path id="XMLID_133_" class="st5" d="M-285.6,288.2v-29.3h5.9l7,20.8c0.6,1.9,1.1,3.4,1.4,4.3c0.3-1.1,0.9-2.6,1.6-4.7l7-20.4h5.2
		v29.4h-3.7v-24.6l-8.5,24.6h-3.5l-8.5-25v25L-285.6,288.2L-285.6,288.2z"/>
	<path id="XMLID_148_" class="st5" d="M-225.9,279.9l3.5-0.5c0.1,2.2,0.5,3.8,1.3,4.6c0.7,0.8,1.8,1.2,3.1,1.2c1,0,1.8-0.2,2.5-0.7
		c0.7-0.4,1.2-1.1,1.5-1.8c0.3-0.8,0.4-2,0.4-3.7v-20.1h3.9v20c0,2.5-0.3,4.4-0.9,5.7c-0.6,1.3-1.5,2.4-2.8,3.1
		c-1.3,0.7-2.8,1.1-4.5,1.1c-2.6,0-4.6-0.7-5.9-2.2S-225.9,282.8-225.9,279.9z"/>
	<path id="XMLID_165_" class="st5" d="M-206.6,288.2l11.3-29.4h4.2l12,29.4h-4.4l-3.4-8.9h-12.3l-3.2,8.9H-206.6z M-198.1,276.2h10
		l-3.1-8.1c-0.9-2.5-1.6-4.5-2.1-6.1c-0.4,1.9-0.9,3.8-1.6,5.6L-198.1,276.2z"/>
	<path id="XMLID_168_" class="st5" d="M-176,288.2v-29.3h4l15.4,23.1v-23.1h3.7v29.4h-4l-15.4-23.1v23.1h-3.7V288.2z"/>
	<path id="XMLID_172_" class="st5" d="M-145.7,288.2v-29.3h3.9v29.4h-3.9V288.2z"/>
	<g id="XMLID_104_">
		<path id="XMLID_105_" class="st5" d="M-285.6,302.1v-8.8h3.3c0.6,0,1,0,1.3,0.1c0.4,0.1,0.8,0.2,1.1,0.4c0.3,0.2,0.5,0.5,0.7,0.8
			c0.2,0.4,0.3,0.8,0.3,1.2c0,0.7-0.2,1.4-0.7,1.9s-1.3,0.8-2.6,0.8h-2.3v3.6H-285.6z M-284.4,297.5h2.3c0.8,0,1.3-0.1,1.6-0.4
			s0.5-0.7,0.5-1.2c0-0.4-0.1-0.7-0.3-0.9c-0.2-0.3-0.4-0.4-0.7-0.5c-0.2-0.1-0.6-0.1-1.1-0.1h-2.3V297.5z"/>
		<path id="XMLID_108_" class="st5" d="M-270,302.1v-8.8h3.9c0.8,0,1.4,0.1,1.8,0.2c0.4,0.2,0.7,0.4,1,0.8c0.2,0.4,0.4,0.8,0.4,1.3
			c0,0.6-0.2,1.2-0.6,1.6c-0.4,0.4-1,0.7-1.9,0.8c0.3,0.1,0.5,0.3,0.7,0.4c0.3,0.3,0.7,0.7,1,1.2l1.5,2.4h-1.5l-1.2-1.8
			c-0.3-0.5-0.6-0.9-0.8-1.2c-0.2-0.3-0.4-0.5-0.6-0.6c-0.2-0.1-0.4-0.2-0.5-0.2c-0.1,0-0.3,0-0.6,0h-1.4v3.9H-270z M-268.8,297.2
			h2.5c0.5,0,0.9-0.1,1.2-0.2c0.3-0.1,0.5-0.3,0.7-0.5c0.2-0.2,0.2-0.5,0.2-0.8c0-0.4-0.2-0.8-0.5-1c-0.3-0.3-0.8-0.4-1.4-0.4h-2.8
			v2.9H-268.8z"/>
		<path id="XMLID_111_" class="st5" d="M-254.1,297.8c0-1.5,0.4-2.6,1.2-3.4c0.8-0.8,1.8-1.2,3-1.2c0.8,0,1.5,0.2,2.2,0.6
			c0.7,0.4,1.1,0.9,1.5,1.6c0.3,0.7,0.5,1.5,0.5,2.4c0,0.9-0.2,1.7-0.5,2.4c-0.4,0.7-0.9,1.2-1.5,1.6c-0.7,0.4-1.4,0.5-2.1,0.5
			c-0.8,0-1.6-0.2-2.2-0.6c-0.7-0.4-1.1-0.9-1.5-1.6C-253.9,299.4-254.1,298.6-254.1,297.8z M-252.9,297.8c0,1.1,0.3,1.9,0.9,2.5
			c0.6,0.6,1.3,0.9,2.1,0.9c0.9,0,1.6-0.3,2.2-0.9c0.6-0.6,0.8-1.5,0.8-2.6c0-0.7-0.1-1.3-0.4-1.9c-0.2-0.5-0.6-0.9-1.1-1.2
			c-0.5-0.3-1-0.4-1.6-0.4c-0.8,0-1.5,0.3-2.1,0.8C-252.6,295.5-252.9,296.5-252.9,297.8z"/>
		<path id="XMLID_114_" class="st5" d="M-236.8,302.1v-8.8h3.3c0.6,0,1,0,1.3,0.1c0.4,0.1,0.8,0.2,1.1,0.4c0.3,0.2,0.5,0.5,0.7,0.8
			c0.2,0.4,0.3,0.8,0.3,1.2c0,0.7-0.2,1.4-0.7,1.9s-1.3,0.8-2.6,0.8h-2.3v3.6H-236.8z M-235.7,297.5h2.3c0.8,0,1.3-0.1,1.6-0.4
			c0.3-0.3,0.5-0.7,0.5-1.2c0-0.4-0.1-0.7-0.3-0.9c-0.2-0.3-0.4-0.4-0.7-0.5c-0.2-0.1-0.6-0.1-1.1-0.1h-2.3V297.5z"/>
		<path id="XMLID_118_" class="st5" d="M-221.2,302.1v-8.8h6.4v1h-5.2v2.7h4.9v1h-4.9v3h5.4v1h-6.6V302.1z"/>
		<path id="XMLID_120_" class="st5" d="M-205.7,302.1v-8.8h3.9c0.8,0,1.4,0.1,1.8,0.2c0.4,0.2,0.7,0.4,1,0.8
			c0.2,0.4,0.4,0.8,0.4,1.3c0,0.6-0.2,1.2-0.6,1.6c-0.4,0.4-1,0.7-1.9,0.8c0.3,0.1,0.5,0.3,0.7,0.4c0.3,0.3,0.7,0.7,1,1.2l1.5,2.4
			h-1.5l-1.2-1.8c-0.3-0.5-0.6-0.9-0.8-1.2c-0.2-0.3-0.4-0.5-0.6-0.6c-0.2-0.1-0.4-0.2-0.5-0.2c-0.1,0-0.3,0-0.6,0h-1.4v3.9H-205.7z
			 M-204.5,297.2h2.5c0.5,0,0.9-0.1,1.2-0.2c0.3-0.1,0.5-0.3,0.7-0.5c0.2-0.2,0.2-0.5,0.2-0.8c0-0.4-0.2-0.8-0.5-1
			c-0.3-0.3-0.8-0.4-1.4-0.4h-2.8v2.9H-204.5z"/>
		<path id="XMLID_123_" class="st5" d="M-187.4,302.1v-7.8h-2.9v-1h7v1h-2.9v7.8H-187.4z"/>
		<path id="XMLID_125_" class="st5" d="M-174.6,302.1v-8.8h1.2v8.8H-174.6z"/>
		<path id="XMLID_127_" class="st5" d="M-164,302.1v-8.8h6.4v1h-5.2v2.7h4.9v1h-4.9v3h5.4v1h-6.6V302.1z"/>
		<path id="XMLID_129_" class="st5" d="M-148.8,299.2l1.1-0.1c0.1,0.4,0.2,0.8,0.4,1.1s0.5,0.5,0.9,0.7c0.4,0.2,0.9,0.3,1.4,0.3
			c0.4,0,0.8-0.1,1.2-0.2c0.3-0.1,0.6-0.3,0.8-0.5s0.2-0.5,0.2-0.8c0-0.3-0.1-0.5-0.2-0.7c-0.2-0.2-0.4-0.4-0.8-0.5
			c-0.2-0.1-0.8-0.2-1.6-0.4c-0.8-0.2-1.4-0.4-1.7-0.5c-0.4-0.2-0.7-0.5-0.9-0.8c-0.2-0.3-0.3-0.7-0.3-1.1c0-0.4,0.1-0.9,0.4-1.2
			c0.3-0.4,0.6-0.7,1.1-0.9c0.5-0.2,1-0.3,1.6-0.3c0.7,0,1.2,0.1,1.7,0.3c0.5,0.2,0.9,0.5,1.1,0.9c0.3,0.4,0.4,0.9,0.4,1.4l-1.1,0.1
			c-0.1-0.6-0.3-1-0.6-1.3c-0.3-0.3-0.9-0.4-1.5-0.4c-0.7,0-1.2,0.1-1.5,0.4c-0.3,0.3-0.5,0.6-0.5,0.9c0,0.3,0.1,0.6,0.3,0.8
			c0.2,0.2,0.8,0.4,1.8,0.6c0.9,0.2,1.6,0.4,1.9,0.6c0.5,0.2,0.9,0.5,1.1,0.9c0.2,0.4,0.4,0.8,0.4,1.3s-0.1,0.9-0.4,1.3
			c-0.3,0.4-0.7,0.7-1.2,1c-0.5,0.2-1.1,0.3-1.7,0.3c-0.8,0-1.5-0.1-2-0.3s-1-0.6-1.3-1C-148.6,300.4-148.8,299.8-148.8,299.2z"/>
	</g>
	<g id="XMLID_38_">
		<path id="XMLID_40_" class="st6" d="M-233,273.6V262h-3.3v3.6l-2.7-6.7h-4.2l-11.3,29.4h4.1c0,0,8.8-24.4,9.2-26.3
			c0.5,1.6,9.8,26.3,9.8,26.3h4.4L-233,273.6z"/>
		<rect id="XMLID_39_" x="-243.5" y="277.7" class="st6" width="5.5" height="5.5"/>
	</g>
</g>
</svg>
